<mxfile host="www.draw.io" modified="2020-02-07T18:57:00.598Z" agent="Mozilla/5.0 (Macintosh; Intel Mac OS X 10_15_2) AppleWebKit/537.36 (KHTML, like Gecko) Chrome/79.0.3945.130 Safari/537.36" etag="iAfIMuWWf9VSY418Kw1D" version="12.6.6" type="github" pages="2">
  <diagram id="fc1f3b67-3c9b-b1b3-7705-706421d27264" name="ERD Habit Tracker app">
    <mxGraphModel pageWidth="850" pageHeight="1100" fold="1" pageScale="1" math="0" shadow="0">
      <root>
        <mxCell id="0"/>
        <mxCell id="1" parent="0"/>
        <mxCell id="4cd4486c729dc68b-1" value="User" style="strokeWidth=2;whiteSpace=wrap;html=1;align=center;fontSize=13;fontFamily=Helvetica;fontColor=#000000;strokeColor=#d79b00;fillColor=#ffe6cc;" vertex="1" parent="1">
          <mxGeometry x="120" y="160" width="70" height="70" as="geometry"/>
        </mxCell>
        <mxCell id="4a63a70a29bb4ada-1" value="Name" style="ellipse;whiteSpace=wrap;html=1;aspect=fixed;fontSize=10;fillColor=#dae8fc;strokeColor=#6c8ebf;" vertex="1" parent="1">
          <mxGeometry x="118" y="95" width="50" height="50" as="geometry"/>
        </mxCell>
        <mxCell id="4a63a70a29bb4ada-2" value="&lt;u&gt;&amp;nbsp;UserID&amp;nbsp;&lt;/u&gt;" style="ellipse;whiteSpace=wrap;html=1;aspect=fixed;fontSize=10;fillColor=#dae8fc;strokeColor=#6c8ebf;" vertex="1" parent="1">
          <mxGeometry x="34" y="111" width="66" height="66" as="geometry"/>
        </mxCell>
        <mxCell id="4a63a70a29bb4ada-3" value="&lt;i&gt;CoachID&lt;/i&gt;" style="ellipse;whiteSpace=wrap;html=1;aspect=fixed;fontSize=10;fillColor=#dae8fc;strokeColor=#6c8ebf;" vertex="1" parent="1">
          <mxGeometry x="43" y="199" width="50" height="50" as="geometry"/>
        </mxCell>
        <mxCell id="4a63a70a29bb4ada-5" value="Habit" style="strokeWidth=2;whiteSpace=wrap;html=1;align=center;fontSize=13;fontFamily=Helvetica;fontColor=#000000;strokeColor=#d79b00;fillColor=#ffe6cc;" vertex="1" parent="1">
          <mxGeometry x="490" y="143" width="70" height="70" as="geometry"/>
        </mxCell>
        <mxCell id="4a63a70a29bb4ada-6" value="Habit Name" style="ellipse;whiteSpace=wrap;html=1;aspect=fixed;fontSize=10;fillColor=#dae8fc;strokeColor=#6c8ebf;" vertex="1" parent="1">
          <mxGeometry x="510" y="69" width="50" height="50" as="geometry"/>
        </mxCell>
        <mxCell id="5ecfb9fce94ea102-6" value="" style="edgeStyle=none;rounded=0;html=1;startArrow=none;startFill=0;endArrow=none;endFill=0;jettySize=auto;orthogonalLoop=1;strokeColor=#000066;fontSize=13;" edge="1" source="4a63a70a29bb4ada-6" target="4a63a70a29bb4ada-5" parent="1">
          <mxGeometry relative="1" as="geometry"/>
        </mxCell>
        <mxCell id="4a63a70a29bb4ada-8" value="&lt;u&gt;&amp;nbsp;HabitID&amp;nbsp;&lt;/u&gt;" style="ellipse;whiteSpace=wrap;html=1;aspect=fixed;fontSize=10;fillColor=#dae8fc;strokeColor=#6c8ebf;" vertex="1" parent="1">
          <mxGeometry x="579" y="87" width="66" height="66" as="geometry"/>
        </mxCell>
        <mxCell id="4a63a70a29bb4ada-9" value="" style="edgeStyle=orthogonalEdgeStyle;html=1;endArrow=ERzeroToMany;endFill=1;fontSize=13;exitX=1;exitY=0.5;entryX=0;entryY=0.5;rounded=0;" edge="1" source="61c8091a879e1e43-1" target="4a63a70a29bb4ada-5" parent="1">
          <mxGeometry width="100" height="100" relative="1" as="geometry">
            <mxPoint x="285" y="370" as="sourcePoint"/>
            <mxPoint x="385" y="270" as="targetPoint"/>
          </mxGeometry>
        </mxCell>
        <mxCell id="4a63a70a29bb4ada-10" value="" style="edgeStyle=orthogonalEdgeStyle;html=1;endArrow=none;endFill=0;fontSize=13;exitX=1;exitY=0.25;entryX=0;entryY=0.5;rounded=0;startArrow=ERmany;startFill=0;" edge="1" source="4cd4486c729dc68b-1" target="61c8091a879e1e43-1" parent="1">
          <mxGeometry width="100" height="100" relative="1" as="geometry">
            <mxPoint x="190" y="195" as="sourcePoint"/>
            <mxPoint x="365" y="195" as="targetPoint"/>
          </mxGeometry>
        </mxCell>
        <mxCell id="4a63a70a29bb4ada-13" value="Checkin" style="strokeWidth=2;whiteSpace=wrap;html=1;align=center;fontSize=13;fontFamily=Helvetica;fontColor=#000000;strokeColor=#d79b00;fillColor=#ffe6cc;" vertex="1" parent="1">
          <mxGeometry x="490" y="279" width="70" height="70" as="geometry"/>
        </mxCell>
        <mxCell id="4a63a70a29bb4ada-16" value="Comment" style="strokeWidth=2;whiteSpace=wrap;html=1;align=center;fontSize=13;fontFamily=Helvetica;fontColor=#000000;strokeColor=#d79b00;fillColor=#ffe6cc;" vertex="1" parent="1">
          <mxGeometry x="490" y="482" width="70" height="70" as="geometry"/>
        </mxCell>
        <mxCell id="4a63a70a29bb4ada-18" value="Writes" style="shape=rhombus;strokeWidth=2;fontSize=13;perimeter=rhombusPerimeter;whiteSpace=wrap;html=1;align=center;fillColor=#d5e8d4;strokeColor=#82b366;" vertex="1" parent="1">
          <mxGeometry x="313" y="422" width="70" height="70" as="geometry"/>
        </mxCell>
        <mxCell id="4a63a70a29bb4ada-19" value="Coach" style="strokeWidth=2;whiteSpace=wrap;html=1;align=center;fontSize=13;fontFamily=Helvetica;fontColor=#000000;strokeColor=#d79b00;fillColor=#ffe6cc;" vertex="1" parent="1">
          <mxGeometry x="120" y="370" width="70" height="70" as="geometry"/>
        </mxCell>
        <mxCell id="4a63a70a29bb4ada-20" value="&lt;u&gt;&amp;nbsp;CoachID&amp;nbsp;&lt;/u&gt;" style="ellipse;whiteSpace=wrap;html=1;aspect=fixed;fontSize=10;fillColor=#dae8fc;strokeColor=#6c8ebf;" vertex="1" parent="1">
          <mxGeometry x="34" y="384" width="66" height="66" as="geometry"/>
        </mxCell>
        <mxCell id="4a63a70a29bb4ada-21" value="Name" style="ellipse;whiteSpace=wrap;html=1;aspect=fixed;fontSize=10;fillColor=#dae8fc;strokeColor=#6c8ebf;" vertex="1" parent="1">
          <mxGeometry x="93" y="457" width="50" height="50" as="geometry"/>
        </mxCell>
        <mxCell id="4a63a70a29bb4ada-22" value="Has" style="shape=rhombus;strokeWidth=2;fontSize=13;perimeter=rhombusPerimeter;whiteSpace=wrap;html=1;align=center;fillColor=#d5e8d4;strokeColor=#82b366;" vertex="1" parent="1">
          <mxGeometry x="120" y="265" width="70" height="70" as="geometry"/>
        </mxCell>
        <mxCell id="4a63a70a29bb4ada-23" value="Does" style="shape=rhombus;strokeWidth=2;fontSize=13;perimeter=rhombusPerimeter;whiteSpace=wrap;html=1;align=center;fillColor=#d5e8d4;strokeColor=#82b366;" vertex="1" parent="1">
          <mxGeometry x="315" y="279" width="70" height="70" as="geometry"/>
        </mxCell>
        <mxCell id="4a63a70a29bb4ada-24" style="edgeStyle=orthogonalEdgeStyle;rounded=0;html=1;exitX=1;exitY=0.75;entryX=0;entryY=0.5;endArrow=none;endFill=0;jettySize=auto;orthogonalLoop=1;fontSize=12;startArrow=ERmandOne;startFill=0;" edge="1" source="4cd4486c729dc68b-1" target="4a63a70a29bb4ada-23" parent="1">
          <mxGeometry relative="1" as="geometry">
            <Array as="points">
              <mxPoint x="285" y="213"/>
              <mxPoint x="285" y="314"/>
            </Array>
          </mxGeometry>
        </mxCell>
        <mxCell id="4a63a70a29bb4ada-29" style="edgeStyle=orthogonalEdgeStyle;rounded=0;html=1;exitX=0.5;exitY=1;entryX=0;entryY=0.5;endArrow=none;endFill=0;jettySize=auto;orthogonalLoop=1;fontSize=12;" edge="1" source="4a63a70a29bb4ada-13" target="4a63a70a29bb4ada-31" parent="1">
          <mxGeometry relative="1" as="geometry">
            <mxPoint x="519" y="430" as="targetPoint"/>
          </mxGeometry>
        </mxCell>
        <mxCell id="4a63a70a29bb4ada-30" style="edgeStyle=orthogonalEdgeStyle;rounded=0;html=1;exitX=1;exitY=0.5;entryX=0.5;entryY=0;endArrow=ERzeroToMany;endFill=1;jettySize=auto;orthogonalLoop=1;fontSize=12;" edge="1" source="4a63a70a29bb4ada-31" target="4a63a70a29bb4ada-16" parent="1">
          <mxGeometry relative="1" as="geometry">
            <mxPoint x="519" y="550" as="sourcePoint"/>
          </mxGeometry>
        </mxCell>
        <mxCell id="4a63a70a29bb4ada-31" value="Has" style="shape=rhombus;strokeWidth=2;fontSize=13;perimeter=rhombusPerimeter;whiteSpace=wrap;html=1;align=center;direction=south;fillColor=#d5e8d4;strokeColor=#82b366;" vertex="1" parent="1">
          <mxGeometry x="490" y="373" width="70" height="70" as="geometry"/>
        </mxCell>
        <mxCell id="4a63a70a29bb4ada-38" style="edgeStyle=orthogonalEdgeStyle;rounded=0;html=1;exitX=1;exitY=0.5;entryX=0;entryY=0.5;endArrow=ERzeroToMany;endFill=1;jettySize=auto;orthogonalLoop=1;fontSize=12;" edge="1" source="4a63a70a29bb4ada-23" target="4a63a70a29bb4ada-13" parent="1">
          <mxGeometry relative="1" as="geometry"/>
        </mxCell>
        <mxCell id="4a63a70a29bb4ada-39" style="edgeStyle=orthogonalEdgeStyle;rounded=0;html=1;exitX=0.5;exitY=0;entryX=0.5;entryY=1;endArrow=none;endFill=0;jettySize=auto;orthogonalLoop=1;fontSize=12;startArrow=ERzeroToOne;startFill=1;" edge="1" source="4a63a70a29bb4ada-19" target="4a63a70a29bb4ada-22" parent="1">
          <mxGeometry relative="1" as="geometry"/>
        </mxCell>
        <mxCell id="4a63a70a29bb4ada-40" style="edgeStyle=orthogonalEdgeStyle;rounded=0;html=1;exitX=0.5;exitY=0;entryX=0.5;entryY=1;endArrow=ERzeroToMany;endFill=1;jettySize=auto;orthogonalLoop=1;fontSize=12;" edge="1" source="4a63a70a29bb4ada-22" target="4cd4486c729dc68b-1" parent="1">
          <mxGeometry relative="1" as="geometry"/>
        </mxCell>
        <mxCell id="4a63a70a29bb4ada-41" style="edgeStyle=orthogonalEdgeStyle;rounded=0;html=1;exitX=0.75;exitY=1;endArrow=none;endFill=0;jettySize=auto;orthogonalLoop=1;fontSize=12;startArrow=ERmandOne;startFill=0;entryX=0;entryY=0.5;" edge="1" source="4cd4486c729dc68b-1" target="4a63a70a29bb4ada-18" parent="1">
          <mxGeometry relative="1" as="geometry">
            <Array as="points">
              <mxPoint x="173" y="260"/>
              <mxPoint x="240" y="260"/>
              <mxPoint x="240" y="457"/>
            </Array>
            <mxPoint x="300" y="457" as="targetPoint"/>
          </mxGeometry>
        </mxCell>
        <mxCell id="4a63a70a29bb4ada-42" style="edgeStyle=orthogonalEdgeStyle;rounded=0;html=1;entryX=0;entryY=0.5;endArrow=none;endFill=0;jettySize=auto;orthogonalLoop=1;fontSize=12;startArrow=ERmandOne;startFill=0;" edge="1" source="4a63a70a29bb4ada-19" target="4a63a70a29bb4ada-18" parent="1">
          <mxGeometry relative="1" as="geometry">
            <Array as="points">
              <mxPoint x="240" y="410"/>
              <mxPoint x="240" y="457"/>
            </Array>
          </mxGeometry>
        </mxCell>
        <mxCell id="4a63a70a29bb4ada-43" style="edgeStyle=orthogonalEdgeStyle;rounded=0;html=1;exitX=1;exitY=0.5;entryX=0;entryY=0.5;endArrow=ERzeroToMany;endFill=1;jettySize=auto;orthogonalLoop=1;fontSize=12;" edge="1" source="4a63a70a29bb4ada-18" target="4a63a70a29bb4ada-16" parent="1">
          <mxGeometry relative="1" as="geometry">
            <Array as="points">
              <mxPoint x="440" y="457"/>
              <mxPoint x="440" y="517"/>
            </Array>
          </mxGeometry>
        </mxCell>
        <mxCell id="4a63a70a29bb4ada-44" value="&lt;u&gt;&amp;nbsp;Habit&amp;nbsp;&lt;br&gt;&amp;nbsp;CheckinID&amp;nbsp;&lt;/u&gt;" style="ellipse;whiteSpace=wrap;html=1;aspect=fixed;fontSize=10;fillColor=#dae8fc;strokeColor=#6c8ebf;" vertex="1" parent="1">
          <mxGeometry x="616" y="250" width="66" height="66" as="geometry"/>
        </mxCell>
        <mxCell id="4a63a70a29bb4ada-45" value="Checkin&lt;br&gt;Date&lt;br&gt;" style="ellipse;whiteSpace=wrap;html=1;aspect=fixed;fontSize=10;fillColor=#dae8fc;strokeColor=#6c8ebf;" vertex="1" parent="1">
          <mxGeometry x="560" y="225" width="49" height="49" as="geometry"/>
        </mxCell>
        <mxCell id="4a63a70a29bb4ada-46" style="rounded=0;html=1;endArrow=none;endFill=0;jettySize=auto;orthogonalLoop=1;fontSize=12;" edge="1" source="4a63a70a29bb4ada-13" target="4a63a70a29bb4ada-45" parent="1">
          <mxGeometry relative="1" as="geometry"/>
        </mxCell>
        <mxCell id="4a63a70a29bb4ada-48" style="rounded=0;html=1;endArrow=none;endFill=0;jettySize=auto;orthogonalLoop=1;fontSize=12;" edge="1" source="4a63a70a29bb4ada-8" target="4a63a70a29bb4ada-5" parent="1">
          <mxGeometry relative="1" as="geometry"/>
        </mxCell>
        <mxCell id="4a63a70a29bb4ada-49" style="rounded=0;html=1;endArrow=none;endFill=0;jettySize=auto;orthogonalLoop=1;fontSize=12;" edge="1" target="4a63a70a29bb4ada-5" parent="1">
          <mxGeometry relative="1" as="geometry">
            <mxPoint x="532.4621577996652" y="118.87085356328134" as="sourcePoint"/>
          </mxGeometry>
        </mxCell>
        <mxCell id="4a63a70a29bb4ada-51" style="edgeStyle=none;rounded=0;html=1;endArrow=none;endFill=0;jettySize=auto;orthogonalLoop=1;fontSize=12;" edge="1" source="4a63a70a29bb4ada-13" target="4a63a70a29bb4ada-44" parent="1">
          <mxGeometry relative="1" as="geometry"/>
        </mxCell>
        <mxCell id="4a63a70a29bb4ada-52" style="edgeStyle=none;rounded=0;html=1;endArrow=none;endFill=0;jettySize=auto;orthogonalLoop=1;fontSize=12;" edge="1" source="4a63a70a29bb4ada-20" target="4a63a70a29bb4ada-19" parent="1">
          <mxGeometry relative="1" as="geometry"/>
        </mxCell>
        <mxCell id="4a63a70a29bb4ada-53" style="edgeStyle=none;rounded=0;html=1;endArrow=none;endFill=0;jettySize=auto;orthogonalLoop=1;fontSize=12;" edge="1" source="4a63a70a29bb4ada-21" target="4a63a70a29bb4ada-19" parent="1">
          <mxGeometry relative="1" as="geometry"/>
        </mxCell>
        <mxCell id="4a63a70a29bb4ada-54" style="edgeStyle=none;rounded=0;html=1;endArrow=none;endFill=0;jettySize=auto;orthogonalLoop=1;fontSize=12;" edge="1" source="4a63a70a29bb4ada-2" target="4cd4486c729dc68b-1" parent="1">
          <mxGeometry relative="1" as="geometry"/>
        </mxCell>
        <mxCell id="4a63a70a29bb4ada-55" style="edgeStyle=none;rounded=0;html=1;endArrow=none;endFill=0;jettySize=auto;orthogonalLoop=1;fontSize=12;" edge="1" source="4a63a70a29bb4ada-1" target="4cd4486c729dc68b-1" parent="1">
          <mxGeometry relative="1" as="geometry"/>
        </mxCell>
        <mxCell id="4a63a70a29bb4ada-56" style="edgeStyle=none;rounded=0;html=1;endArrow=none;endFill=0;jettySize=auto;orthogonalLoop=1;fontSize=12;" edge="1" source="4a63a70a29bb4ada-3" target="4cd4486c729dc68b-1" parent="1">
          <mxGeometry relative="1" as="geometry">
            <mxPoint x="110" y="260" as="sourcePoint"/>
          </mxGeometry>
        </mxCell>
        <mxCell id="4a63a70a29bb4ada-58" value="&lt;u&gt;&amp;nbsp;CommentID&amp;nbsp;&lt;/u&gt;&lt;br&gt;" style="ellipse;whiteSpace=wrap;html=1;aspect=fixed;fontSize=10;fillColor=#dae8fc;strokeColor=#6c8ebf;" vertex="1" parent="1">
          <mxGeometry x="575" y="440" width="66" height="66" as="geometry"/>
        </mxCell>
        <mxCell id="4a63a70a29bb4ada-59" value="Comment&lt;br&gt;Text&lt;br&gt;" style="ellipse;whiteSpace=wrap;html=1;aspect=fixed;fontSize=10;fillColor=#dae8fc;strokeColor=#6c8ebf;" vertex="1" parent="1">
          <mxGeometry x="608" y="513" width="49" height="49" as="geometry"/>
        </mxCell>
        <mxCell id="4a63a70a29bb4ada-60" value="Comment&lt;br&gt;Date&lt;br&gt;" style="ellipse;whiteSpace=wrap;html=1;aspect=fixed;fontSize=10;fillColor=#dae8fc;strokeColor=#6c8ebf;" vertex="1" parent="1">
          <mxGeometry x="559" y="562" width="49" height="49" as="geometry"/>
        </mxCell>
        <mxCell id="4a63a70a29bb4ada-61" value="&lt;i&gt;UserID&lt;/i&gt;&lt;br&gt;" style="ellipse;whiteSpace=wrap;html=1;aspect=fixed;fontSize=9;fillColor=#dae8fc;strokeColor=#6c8ebf;" vertex="1" parent="1">
          <mxGeometry x="501" y="570" width="49" height="49" as="geometry"/>
        </mxCell>
        <mxCell id="4a63a70a29bb4ada-62" style="rounded=0;html=1;startArrow=none;startFill=0;endArrow=none;endFill=0;jettySize=auto;orthogonalLoop=1;fontSize=10;" edge="1" source="4a63a70a29bb4ada-58" target="4a63a70a29bb4ada-16" parent="1">
          <mxGeometry relative="1" as="geometry"/>
        </mxCell>
        <mxCell id="4a63a70a29bb4ada-63" style="edgeStyle=none;rounded=0;html=1;startArrow=none;startFill=0;endArrow=none;endFill=0;jettySize=auto;orthogonalLoop=1;fontSize=10;" edge="1" source="4a63a70a29bb4ada-59" target="4a63a70a29bb4ada-16" parent="1">
          <mxGeometry relative="1" as="geometry"/>
        </mxCell>
        <mxCell id="4a63a70a29bb4ada-64" style="edgeStyle=none;rounded=0;html=1;startArrow=none;startFill=0;endArrow=none;endFill=0;jettySize=auto;orthogonalLoop=1;fontSize=10;" edge="1" source="4a63a70a29bb4ada-60" target="4a63a70a29bb4ada-16" parent="1">
          <mxGeometry relative="1" as="geometry"/>
        </mxCell>
        <mxCell id="4a63a70a29bb4ada-65" style="edgeStyle=none;rounded=0;html=1;startArrow=none;startFill=0;endArrow=none;endFill=0;jettySize=auto;orthogonalLoop=1;fontSize=10;" edge="1" source="4a63a70a29bb4ada-61" target="4a63a70a29bb4ada-16" parent="1">
          <mxGeometry relative="1" as="geometry"/>
        </mxCell>
        <mxCell id="4a63a70a29bb4ada-7" value="HabitNum" style="ellipse;whiteSpace=wrap;html=1;aspect=fixed;fontSize=10;fillColor=#dae8fc;strokeColor=#6c8ebf;dashed=1;" vertex="1" parent="1">
          <mxGeometry x="190" y="94" width="50" height="50" as="geometry"/>
        </mxCell>
        <mxCell id="4a63a70a29bb4ada-11" style="rounded=0;html=1;startArrow=none;startFill=0;endArrow=none;endFill=0;jettySize=auto;orthogonalLoop=1;fontSize=10;" edge="1" source="4a63a70a29bb4ada-7" target="4cd4486c729dc68b-1" parent="1">
          <mxGeometry relative="1" as="geometry"/>
        </mxCell>
        <mxCell id="113bda5a66023eaa-1" value="&lt;i&gt;CoachID&lt;/i&gt;&lt;br&gt;" style="ellipse;whiteSpace=wrap;html=1;aspect=fixed;fontSize=9;fillColor=#dae8fc;strokeColor=#6c8ebf;" vertex="1" parent="1">
          <mxGeometry x="441" y="562" width="49" height="49" as="geometry"/>
        </mxCell>
        <mxCell id="113bda5a66023eaa-2" style="rounded=0;html=1;startArrow=none;startFill=0;endArrow=none;endFill=0;jettySize=auto;orthogonalLoop=1;strokeColor=#000066;fontSize=13;" edge="1" source="113bda5a66023eaa-1" target="4a63a70a29bb4ada-16" parent="1">
          <mxGeometry relative="1" as="geometry"/>
        </mxCell>
        <mxCell id="5ecfb9fce94ea102-1" value="&lt;i&gt;HabitID&lt;/i&gt;&lt;br&gt;" style="ellipse;whiteSpace=wrap;html=1;aspect=fixed;fontSize=10;fillColor=#dae8fc;strokeColor=#6c8ebf;" vertex="1" parent="1">
          <mxGeometry x="616" y="321" width="49" height="49" as="geometry"/>
        </mxCell>
        <mxCell id="5ecfb9fce94ea102-2" style="rounded=0;html=1;startArrow=none;startFill=0;endArrow=none;endFill=0;jettySize=auto;orthogonalLoop=1;strokeColor=#000066;fontSize=13;" edge="1" source="5ecfb9fce94ea102-1" target="4a63a70a29bb4ada-13" parent="1">
          <mxGeometry relative="1" as="geometry"/>
        </mxCell>
        <mxCell id="5ecfb9fce94ea102-3" style="edgeStyle=none;rounded=0;html=1;exitX=0.5;exitY=1;entryX=0.5;entryY=0;startArrow=ERmandOne;startFill=0;endArrow=ERzeroToMany;endFill=1;jettySize=auto;orthogonalLoop=1;strokeColor=#000066;fontSize=13;" edge="1" source="4a63a70a29bb4ada-5" target="4a63a70a29bb4ada-13" parent="1">
          <mxGeometry relative="1" as="geometry"/>
        </mxCell>
        <mxCell id="5ecfb9fce94ea102-7" value="&lt;i&gt;Habit&lt;br&gt;CheckinID&lt;/i&gt;&lt;br&gt;" style="ellipse;whiteSpace=wrap;html=1;aspect=fixed;fontSize=9;fillColor=#dae8fc;strokeColor=#6c8ebf;" vertex="1" parent="1">
          <mxGeometry x="401" y="521" width="49" height="49" as="geometry"/>
        </mxCell>
        <mxCell id="5ecfb9fce94ea102-8" style="edgeStyle=none;rounded=0;html=1;startArrow=none;startFill=0;endArrow=none;endFill=0;jettySize=auto;orthogonalLoop=1;strokeColor=#000066;fontSize=13;" edge="1" source="5ecfb9fce94ea102-7" target="4a63a70a29bb4ada-16" parent="1">
          <mxGeometry relative="1" as="geometry"/>
        </mxCell>
        <mxCell id="5ecfb9fce94ea102-9" value="&lt;i&gt;UserID&lt;/i&gt;&lt;br&gt;" style="ellipse;whiteSpace=wrap;html=1;aspect=fixed;fontSize=10;fillColor=#dae8fc;strokeColor=#6c8ebf;" vertex="1" parent="1">
          <mxGeometry x="567" y="359" width="49" height="49" as="geometry"/>
        </mxCell>
        <mxCell id="5ecfb9fce94ea102-10" style="edgeStyle=none;rounded=0;html=1;startArrow=none;startFill=0;endArrow=none;endFill=0;jettySize=auto;orthogonalLoop=1;strokeColor=#000066;fontSize=13;" edge="1" source="5ecfb9fce94ea102-9" target="4a63a70a29bb4ada-13" parent="1">
          <mxGeometry relative="1" as="geometry"/>
        </mxCell>
        <mxCell id="61c8091a879e1e43-3" value="" style="group" vertex="1" connectable="0" parent="1">
          <mxGeometry x="312" y="141" width="74" height="74" as="geometry"/>
        </mxCell>
        <mxCell id="61c8091a879e1e43-1" value="Entity" style="strokeWidth=2;whiteSpace=wrap;html=1;align=center;fontSize=14;fillColor=#d5e8d4;strokeColor=#82b366;" vertex="1" parent="61c8091a879e1e43-3">
          <mxGeometry width="74" height="74" as="geometry"/>
        </mxCell>
        <mxCell id="4a63a70a29bb4ada-4" value="Has" style="shape=rhombus;strokeWidth=2;fontSize=13;perimeter=rhombusPerimeter;whiteSpace=wrap;html=1;align=center;fillColor=#d5e8d4;strokeColor=#82b366;" vertex="1" parent="61c8091a879e1e43-3">
          <mxGeometry x="2" y="2" width="70" height="70" as="geometry"/>
        </mxCell>
      </root>
    </mxGraphModel>
  </diagram>
  <diagram id="cdb5e136-1861-7ef1-5e76-c57f7e18aa8d" name="ERD Data Structure - Habit Tracker App">
    <mxGraphModel dx="2184" dy="572" grid="1" gridSize="10" guides="1" tooltips="1" connect="1" arrows="1" fold="1" page="1" pageScale="1" pageWidth="1100" pageHeight="850" math="0" shadow="0">
      <root>
        <mxCell id="0"/>
        <mxCell id="1" parent="0"/>
        <mxCell id="4a63a70a29bb4ada-31" value="" style="edgeStyle=none;rounded=0;html=1;startArrow=ERzeroToMany;startFill=1;endArrow=ERzeroToOne;endFill=1;jettySize=auto;orthogonalLoop=1;fontSize=10;strokeColor=#000066;entryX=0.913;entryY=-0.049;entryDx=0;entryDy=0;entryPerimeter=0;" parent="1" source="4a63a70a29bb4ada-1" target="4a63a70a29bb4ada-19" edge="1">
          <mxGeometry relative="1" as="geometry">
            <mxPoint x="-263" y="290" as="targetPoint"/>
            <Array as="points"/>
          </mxGeometry>
        </mxCell>
        <mxCell id="4a63a70a29bb4ada-1" value="Player" style="swimlane;fontStyle=0;childLayout=stackLayout;horizontal=1;startSize=26;fillColor=#d5e8d4;horizontalStack=0;resizeParent=1;resizeParentMax=0;resizeLast=0;collapsible=1;marginBottom=0;swimlaneFillColor=#ffffff;align=center;strokeWidth=1;fontSize=13;strokeColor=#82b366;" parent="1" vertex="1">
          <mxGeometry x="-343" y="15" width="160" height="144" as="geometry"/>
        </mxCell>
        <mxCell id="4a63a70a29bb4ada-2" value="player_id" style="shape=partialRectangle;top=0;left=0;right=0;bottom=1;align=left;verticalAlign=middle;fillColor=none;spacingLeft=34;spacingRight=4;overflow=hidden;rotatable=0;points=[[0,0.5],[1,0.5]];portConstraint=eastwest;dropTarget=0;fontStyle=5;" parent="4a63a70a29bb4ada-1" vertex="1">
          <mxGeometry y="26" width="160" height="30" as="geometry"/>
        </mxCell>
        <mxCell id="4a63a70a29bb4ada-3" value="PK" style="shape=partialRectangle;top=0;left=0;bottom=0;fillColor=none;align=left;verticalAlign=middle;spacingLeft=4;spacingRight=4;overflow=hidden;rotatable=0;points=[];portConstraint=eastwest;part=1;fontStyle=1" parent="4a63a70a29bb4ada-2" vertex="1" connectable="0">
          <mxGeometry width="30" height="30" as="geometry"/>
        </mxCell>
        <mxCell id="R2rPT01eB5qmlhFL15qS-8" value="" style="edgeStyle=none;rounded=0;html=1;startArrow=ERzeroToMany;startFill=1;endArrow=ERzeroToOne;endFill=1;jettySize=auto;orthogonalLoop=1;fontSize=10;strokeColor=#000066;exitX=-0.032;exitY=0.236;exitDx=0;exitDy=0;exitPerimeter=0;" parent="4a63a70a29bb4ada-1" source="113bda5a66023eaa-1" edge="1">
          <mxGeometry relative="1" as="geometry">
            <mxPoint x="277" y="68.41" as="sourcePoint"/>
            <mxPoint x="160" y="68.41" as="targetPoint"/>
            <Array as="points">
              <mxPoint x="160" y="68.41"/>
            </Array>
          </mxGeometry>
        </mxCell>
        <mxCell id="4a63a70a29bb4ada-6" value="team_id" style="shape=partialRectangle;top=0;left=0;right=0;bottom=0;align=left;verticalAlign=top;fillColor=none;spacingLeft=34;spacingRight=4;overflow=hidden;rotatable=0;points=[[0,0.5],[1,0.5]];portConstraint=eastwest;dropTarget=0;fontStyle=2" parent="4a63a70a29bb4ada-1" vertex="1">
          <mxGeometry y="56" width="160" height="26" as="geometry"/>
        </mxCell>
        <mxCell id="4a63a70a29bb4ada-7" value="FK" style="shape=partialRectangle;top=0;left=0;bottom=0;fillColor=none;align=left;verticalAlign=top;spacingLeft=4;spacingRight=4;overflow=hidden;rotatable=0;points=[];portConstraint=eastwest;part=1;fontStyle=2" parent="4a63a70a29bb4ada-6" vertex="1" connectable="0">
          <mxGeometry width="30" height="26" as="geometry"/>
        </mxCell>
        <mxCell id="5ecfb9fce94ea102-8" value="Name" style="shape=partialRectangle;top=0;left=0;right=0;bottom=0;align=left;verticalAlign=top;fillColor=none;spacingLeft=34;spacingRight=4;overflow=hidden;rotatable=0;points=[[0,0.5],[1,0.5]];portConstraint=eastwest;dropTarget=0;" parent="4a63a70a29bb4ada-1" vertex="1">
          <mxGeometry y="82" width="160" height="26" as="geometry"/>
        </mxCell>
        <mxCell id="5ecfb9fce94ea102-9" value="" style="shape=partialRectangle;top=0;left=0;bottom=0;fillColor=none;align=left;verticalAlign=top;spacingLeft=4;spacingRight=4;overflow=hidden;rotatable=0;points=[];portConstraint=eastwest;part=1;" parent="5ecfb9fce94ea102-8" vertex="1" connectable="0">
          <mxGeometry width="30" height="26" as="geometry"/>
        </mxCell>
        <mxCell id="4a63a70a29bb4ada-16" value="Age" style="shape=partialRectangle;top=0;left=0;right=0;bottom=0;align=left;verticalAlign=top;fillColor=none;spacingLeft=34;spacingRight=4;overflow=hidden;rotatable=0;points=[[0,0.5],[1,0.5]];portConstraint=eastwest;dropTarget=0;" parent="4a63a70a29bb4ada-1" vertex="1">
          <mxGeometry y="108" width="160" height="26" as="geometry"/>
        </mxCell>
        <mxCell id="4a63a70a29bb4ada-17" value="" style="shape=partialRectangle;top=0;left=0;bottom=0;fillColor=none;align=left;verticalAlign=top;spacingLeft=4;spacingRight=4;overflow=hidden;rotatable=0;points=[];portConstraint=eastwest;part=1;" parent="4a63a70a29bb4ada-16" vertex="1" connectable="0">
          <mxGeometry width="30" height="26" as="geometry"/>
        </mxCell>
        <mxCell id="4a63a70a29bb4ada-10" value="" style="shape=partialRectangle;top=0;left=0;right=0;bottom=0;align=left;verticalAlign=top;fillColor=none;spacingLeft=34;spacingRight=4;overflow=hidden;rotatable=0;points=[[0,0.5],[1,0.5]];portConstraint=eastwest;dropTarget=0;" parent="4a63a70a29bb4ada-1" vertex="1">
          <mxGeometry y="134" width="160" height="10" as="geometry"/>
        </mxCell>
        <mxCell id="4a63a70a29bb4ada-11" value="" style="shape=partialRectangle;top=0;left=0;bottom=0;fillColor=none;align=left;verticalAlign=top;spacingLeft=4;spacingRight=4;overflow=hidden;rotatable=0;points=[];portConstraint=eastwest;part=1;" parent="4a63a70a29bb4ada-10" vertex="1" connectable="0">
          <mxGeometry width="30" height="10" as="geometry"/>
        </mxCell>
        <mxCell id="4a63a70a29bb4ada-32" value="Event" style="swimlane;fontStyle=0;childLayout=stackLayout;horizontal=1;startSize=26;fillColor=#FFE6CC;horizontalStack=0;resizeParent=1;resizeParentMax=0;resizeLast=0;collapsible=1;marginBottom=0;swimlaneFillColor=#ffffff;align=center;strokeWidth=1;fontSize=13;strokeColor=#d79b00;" parent="1" vertex="1">
          <mxGeometry x="37" y="240" width="160" height="162" as="geometry"/>
        </mxCell>
        <mxCell id="4a63a70a29bb4ada-33" value="event_id" style="shape=partialRectangle;top=0;left=0;right=0;bottom=1;align=left;verticalAlign=middle;fillColor=none;spacingLeft=34;spacingRight=4;overflow=hidden;rotatable=0;points=[[0,0.5],[1,0.5]];portConstraint=eastwest;dropTarget=0;fontStyle=5;" parent="4a63a70a29bb4ada-32" vertex="1">
          <mxGeometry y="26" width="160" height="30" as="geometry"/>
        </mxCell>
        <mxCell id="4a63a70a29bb4ada-34" value="PK" style="shape=partialRectangle;top=0;left=0;bottom=0;fillColor=none;align=left;verticalAlign=middle;spacingLeft=4;spacingRight=4;overflow=hidden;rotatable=0;points=[];portConstraint=eastwest;part=1;fontStyle=1" parent="4a63a70a29bb4ada-33" vertex="1" connectable="0">
          <mxGeometry width="30" height="30" as="geometry"/>
        </mxCell>
        <mxCell id="4a63a70a29bb4ada-37" value="event_type " style="shape=partialRectangle;top=0;left=0;right=0;bottom=0;align=left;verticalAlign=top;fillColor=none;spacingLeft=34;spacingRight=4;overflow=hidden;rotatable=0;points=[[0,0.5],[1,0.5]];portConstraint=eastwest;dropTarget=0;" parent="4a63a70a29bb4ada-32" vertex="1">
          <mxGeometry y="56" width="160" height="24" as="geometry"/>
        </mxCell>
        <mxCell id="4a63a70a29bb4ada-38" value="" style="shape=partialRectangle;top=0;left=0;bottom=0;fillColor=none;align=left;verticalAlign=top;spacingLeft=4;spacingRight=4;overflow=hidden;rotatable=0;points=[];portConstraint=eastwest;part=1;" parent="4a63a70a29bb4ada-37" vertex="1" connectable="0">
          <mxGeometry width="30" height="24" as="geometry"/>
        </mxCell>
        <mxCell id="4a63a70a29bb4ada-43" value="" style="shape=partialRectangle;top=0;left=0;right=0;bottom=0;align=left;verticalAlign=top;fillColor=none;spacingLeft=34;spacingRight=4;overflow=hidden;rotatable=0;points=[[0,0.5],[1,0.5]];portConstraint=eastwest;dropTarget=0;" parent="4a63a70a29bb4ada-32" vertex="1">
          <mxGeometry y="80" width="160" height="10" as="geometry"/>
        </mxCell>
        <mxCell id="4a63a70a29bb4ada-44" value="" style="shape=partialRectangle;top=0;left=0;bottom=0;fillColor=none;align=left;verticalAlign=top;spacingLeft=4;spacingRight=4;overflow=hidden;rotatable=0;points=[];portConstraint=eastwest;part=1;" parent="4a63a70a29bb4ada-43" vertex="1" connectable="0">
          <mxGeometry width="30" height="10" as="geometry"/>
        </mxCell>
        <mxCell id="R2rPT01eB5qmlhFL15qS-9" value="timedate" style="shape=partialRectangle;top=0;left=0;right=0;bottom=0;align=left;verticalAlign=top;fillColor=none;spacingLeft=34;spacingRight=4;overflow=hidden;rotatable=0;points=[[0,0.5],[1,0.5]];portConstraint=eastwest;dropTarget=0;" parent="4a63a70a29bb4ada-32" vertex="1">
          <mxGeometry y="90" width="160" height="24" as="geometry"/>
        </mxCell>
        <mxCell id="R2rPT01eB5qmlhFL15qS-10" value="" style="shape=partialRectangle;top=0;left=0;bottom=0;fillColor=none;align=left;verticalAlign=top;spacingLeft=4;spacingRight=4;overflow=hidden;rotatable=0;points=[];portConstraint=eastwest;part=1;" parent="R2rPT01eB5qmlhFL15qS-9" vertex="1" connectable="0">
          <mxGeometry width="30" height="24" as="geometry"/>
        </mxCell>
        <mxCell id="R2rPT01eB5qmlhFL15qS-1" value="location" style="shape=partialRectangle;top=0;left=0;right=0;bottom=0;align=left;verticalAlign=top;fillColor=none;spacingLeft=34;spacingRight=4;overflow=hidden;rotatable=0;points=[[0,0.5],[1,0.5]];portConstraint=eastwest;dropTarget=0;" parent="4a63a70a29bb4ada-32" vertex="1">
          <mxGeometry y="114" width="160" height="24" as="geometry"/>
        </mxCell>
        <mxCell id="R2rPT01eB5qmlhFL15qS-2" value="" style="shape=partialRectangle;top=0;left=0;bottom=0;fillColor=none;align=left;verticalAlign=top;spacingLeft=4;spacingRight=4;overflow=hidden;rotatable=0;points=[];portConstraint=eastwest;part=1;" parent="R2rPT01eB5qmlhFL15qS-1" vertex="1" connectable="0">
          <mxGeometry width="30" height="24" as="geometry"/>
        </mxCell>
        <mxCell id="R2rPT01eB5qmlhFL15qS-5" value="team_id" style="shape=partialRectangle;top=0;left=0;right=0;bottom=0;align=left;verticalAlign=top;fillColor=none;spacingLeft=34;spacingRight=4;overflow=hidden;rotatable=0;points=[[0,0.5],[1,0.5]];portConstraint=eastwest;dropTarget=0;" parent="4a63a70a29bb4ada-32" vertex="1">
          <mxGeometry y="138" width="160" height="24" as="geometry"/>
        </mxCell>
        <mxCell id="R2rPT01eB5qmlhFL15qS-6" value="FK" style="shape=partialRectangle;top=0;left=0;bottom=0;fillColor=none;align=left;verticalAlign=top;spacingLeft=4;spacingRight=4;overflow=hidden;rotatable=0;points=[];portConstraint=eastwest;part=1;" parent="R2rPT01eB5qmlhFL15qS-5" vertex="1" connectable="0">
          <mxGeometry width="30" height="24" as="geometry"/>
        </mxCell>
        <mxCell id="4a63a70a29bb4ada-18" value="Team" style="swimlane;fontStyle=0;childLayout=stackLayout;horizontal=1;startSize=26;fillColor=#ffe6cc;horizontalStack=0;resizeParent=1;resizeParentMax=0;resizeLast=0;collapsible=1;marginBottom=0;swimlaneFillColor=#ffffff;align=center;strokeWidth=1;fontSize=13;strokeColor=#d79b00;" parent="1" vertex="1">
          <mxGeometry x="-413" y="300" width="160" height="92" as="geometry"/>
        </mxCell>
        <mxCell id="4a63a70a29bb4ada-19" value="team_id" style="shape=partialRectangle;top=0;left=0;right=0;bottom=1;align=left;verticalAlign=middle;fillColor=none;spacingLeft=34;spacingRight=4;overflow=hidden;rotatable=0;points=[[0,0.5],[1,0.5]];portConstraint=eastwest;dropTarget=0;fontStyle=5;" parent="4a63a70a29bb4ada-18" vertex="1">
          <mxGeometry y="26" width="160" height="30" as="geometry"/>
        </mxCell>
        <mxCell id="4a63a70a29bb4ada-20" value="PK" style="shape=partialRectangle;top=0;left=0;bottom=0;fillColor=none;align=left;verticalAlign=middle;spacingLeft=4;spacingRight=4;overflow=hidden;rotatable=0;points=[];portConstraint=eastwest;part=1;" parent="4a63a70a29bb4ada-19" vertex="1" connectable="0">
          <mxGeometry width="30" height="30" as="geometry"/>
        </mxCell>
        <mxCell id="4a63a70a29bb4ada-23" value="Name" style="shape=partialRectangle;top=0;left=0;right=0;bottom=0;align=left;verticalAlign=top;fillColor=none;spacingLeft=34;spacingRight=4;overflow=hidden;rotatable=0;points=[[0,0.5],[1,0.5]];portConstraint=eastwest;dropTarget=0;" parent="4a63a70a29bb4ada-18" vertex="1">
          <mxGeometry y="56" width="160" height="26" as="geometry"/>
        </mxCell>
        <mxCell id="4a63a70a29bb4ada-24" value="" style="shape=partialRectangle;top=0;left=0;bottom=0;fillColor=none;align=left;verticalAlign=top;spacingLeft=4;spacingRight=4;overflow=hidden;rotatable=0;points=[];portConstraint=eastwest;part=1;" parent="4a63a70a29bb4ada-23" vertex="1" connectable="0">
          <mxGeometry width="30" height="26" as="geometry"/>
        </mxCell>
        <mxCell id="4a63a70a29bb4ada-29" value="" style="shape=partialRectangle;top=0;left=0;right=0;bottom=0;align=left;verticalAlign=top;fillColor=none;spacingLeft=34;spacingRight=4;overflow=hidden;rotatable=0;points=[[0,0.5],[1,0.5]];portConstraint=eastwest;dropTarget=0;" parent="4a63a70a29bb4ada-18" vertex="1">
          <mxGeometry y="82" width="160" height="10" as="geometry"/>
        </mxCell>
        <mxCell id="4a63a70a29bb4ada-30" value="" style="shape=partialRectangle;top=0;left=0;bottom=0;fillColor=none;align=left;verticalAlign=top;spacingLeft=4;spacingRight=4;overflow=hidden;rotatable=0;points=[];portConstraint=eastwest;part=1;" parent="4a63a70a29bb4ada-29" vertex="1" connectable="0">
          <mxGeometry width="30" height="10" as="geometry"/>
        </mxCell>
        <mxCell id="4f2698fda814bacb-14" value="Schedule" style="swimlane;fontStyle=0;childLayout=stackLayout;horizontal=1;startSize=26;fillColor=#ffe6cc;horizontalStack=0;resizeParent=1;resizeParentMax=0;resizeLast=0;collapsible=1;marginBottom=0;swimlaneFillColor=#ffffff;align=center;fontSize=13;dashed=1;strokeColor=#d79b00;strokeWidth=1;" parent="1" vertex="1">
          <mxGeometry x="87" y="20" width="160" height="86" as="geometry"/>
        </mxCell>
        <mxCell id="4f2698fda814bacb-15" value="player_id" style="shape=partialRectangle;top=0;left=0;right=0;bottom=1;align=left;verticalAlign=middle;fillColor=none;spacingLeft=60;spacingRight=4;overflow=hidden;rotatable=0;points=[[0,0.5],[1,0.5]];portConstraint=eastwest;dropTarget=0;fontStyle=5;fontSize=12;strokeColor=#000000;perimeterSpacing=0;" parent="4f2698fda814bacb-14" vertex="1">
          <mxGeometry y="26" width="160" height="30" as="geometry"/>
        </mxCell>
        <mxCell id="4f2698fda814bacb-16" value="PK" style="shape=partialRectangle;fontStyle=1;top=0;left=0;bottom=0;fillColor=none;align=left;verticalAlign=middle;spacingLeft=4;spacingRight=4;overflow=hidden;rotatable=0;points=[];portConstraint=eastwest;part=1;fontSize=12;" parent="4f2698fda814bacb-15" vertex="1" connectable="0">
          <mxGeometry width="56" height="30" as="geometry"/>
        </mxCell>
        <mxCell id="113bda5a66023eaa-1" value="event_id" style="shape=partialRectangle;top=0;left=0;right=0;bottom=0;align=left;verticalAlign=middle;fillColor=none;spacingLeft=60;spacingRight=4;overflow=hidden;rotatable=0;points=[[0,0.5],[1,0.5]];portConstraint=eastwest;dropTarget=0;fontStyle=2;fontSize=12;strokeColor=none;" parent="4f2698fda814bacb-14" vertex="1">
          <mxGeometry y="56" width="160" height="30" as="geometry"/>
        </mxCell>
        <mxCell id="113bda5a66023eaa-2" value="FK" style="shape=partialRectangle;fontStyle=2;top=0;left=0;bottom=0;fillColor=none;align=left;verticalAlign=middle;spacingLeft=4;spacingRight=4;overflow=hidden;rotatable=0;points=[];portConstraint=eastwest;part=1;fontSize=12;" parent="113bda5a66023eaa-1" vertex="1" connectable="0">
          <mxGeometry width="56" height="30" as="geometry"/>
        </mxCell>
        <mxCell id="5ecfb9fce94ea102-2" style="edgeStyle=orthogonalEdgeStyle;rounded=0;html=1;exitX=0.5;exitY=0;entryX=1;entryY=0.5;startArrow=none;startFill=0;endArrow=none;endFill=0;jettySize=auto;orthogonalLoop=1;strokeColor=none;fontSize=13;dashed=1;" parent="1" target="4a63a70a29bb4ada-33" edge="1">
          <mxGeometry relative="1" as="geometry">
            <mxPoint x="270" y="174" as="sourcePoint"/>
          </mxGeometry>
        </mxCell>
        <mxCell id="4a63a70a29bb4ada-48" value="" style="edgeStyle=none;rounded=0;html=1;startArrow=ERmandOne;startFill=0;endArrow=ERzeroToMany;endFill=1;jettySize=auto;orthogonalLoop=1;strokeColor=#000066;fontSize=10;entryX=0;entryY=0.5;entryDx=0;entryDy=0;" parent="1" target="R2rPT01eB5qmlhFL15qS-9" edge="1">
          <mxGeometry relative="1" as="geometry">
            <mxPoint x="27" y="343" as="sourcePoint"/>
            <mxPoint x="27" y="343" as="targetPoint"/>
            <Array as="points">
              <mxPoint x="-253" y="342"/>
            </Array>
          </mxGeometry>
        </mxCell>
        <mxCell id="R2rPT01eB5qmlhFL15qS-7" value="" style="edgeStyle=none;rounded=0;html=1;startArrow=ERzeroToMany;startFill=1;endArrow=ERzeroToOne;endFill=1;jettySize=auto;orthogonalLoop=1;fontSize=10;strokeColor=#000066;exitX=0.381;exitY=1.06;exitDx=0;exitDy=0;exitPerimeter=0;" parent="1" source="113bda5a66023eaa-1" edge="1">
          <mxGeometry relative="1" as="geometry">
            <mxPoint x="147" y="120" as="sourcePoint"/>
            <mxPoint x="147" y="240" as="targetPoint"/>
            <Array as="points">
              <mxPoint x="147" y="130"/>
            </Array>
          </mxGeometry>
        </mxCell>
      </root>
    </mxGraphModel>
  </diagram>
</mxfile>
